PathFileType	4	(X/Y/Z)	69_2_17_p0_0-183.trc
DataRate	CameraRate	NumFrames	NumMarkers	Units	OrigDataRate	OrigDataStartFrame	OrigNumFrames
47.0	47.0	5	27	m	47.0	92	184
Frame#	Time	RHip			RKnee			RAnkle			RBigToe			RSmallToe			RHeel			LHip			LKnee			LAnkle			LBigToe			LSmallToe			LHeel			Neck			Head			Nose			RShoulder			RElbow			RWrist			RThumb			RIndex			RPinky			LShoulder			LElbow			LWrist			LThumb			LIndex			LPinky			
		X1	Y1	Z1	X2	Y2	Z2	X3	Y3	Z3	X4	Y4	Z4	X5	Y5	Z5	X6	Y6	Z6	X7	Y7	Z7	X8	Y8	Z8	X9	Y9	Z9	X10	Y10	Z10	X11	Y11	Z11	X12	Y12	Z12	X13	Y13	Z13	X14	Y14	Z14	X15	Y15	Z15	X16	Y16	Z16	X17	Y17	Z17	X18	Y18	Z18	X19	Y19	Z19	X20	Y20	Z20	X21	Y21	Z21	X22	Y22	Z22	X23	Y23	Z23	X24	Y24	Z24	X25	Y25	Z25	X26	Y26	Z26	X27	Y27	Z27	
92	1.9574468085106382	0.2918259281189816	0.5309008016155758	0.4914987796906996	0.25004650761687475	0.5484744101879617	0.9169851557012212	0.22603532028891546	0.5699031298694535	1.3121156440687813	0.26282847073513554	0.4466344569129536	1.336085888274027	0.32208036342057716	0.4713564610072209	1.323808027064242	0.17266175180250565	0.6568292773708773	1.3813880452227218	0.12471015477302032	0.46073698505511795	0.4859542038080435	0.05032044254690078	0.5258171071237099	0.9185164056907978	0.03129200484998429	0.5615121543195721	1.327635795157266	0.10838211665785139	0.39011839751998384	1.313943695533848	0.038316722246787144	0.4265653008223576	1.326803881124368	0.03782137893882749	0.6025862279349122	1.3696395629632228	0.18881730303374178	0.5760653310553263	-0.0019180425099895194	0.2510355890270994	0.484931510927204	-0.24554835049677712	0.25518894321759206	0.4514389786796017	-0.11219003619989958	0.3482434405643795	0.5629801473690844	0.052888952663835045	0.37007663680060043	0.6379704423262149	0.2909459423603299	0.3822293511465892	0.5273677724923196	0.16343120273994904	0.3399624650850344	0.5121156272386111	0.048639112154980235	0.36854507394282654	0.47846197487718556	0.035168377222654396	0.40319017350716213	0.4539265580282325	0.09563450599596075	0.05971621655006807	0.5151070823272685	0.03073717606870817	-0.009043287759290275	0.4143456758678535	0.2469636369426468	0.07775691465514124	0.3931565932510366	0.1085388333294027	0.15987305974425836	0.42841571102341286	0.026225885987772347	0.1500443205202069	0.3937951179605686	0.0010356267579080633	0.14067843455422646	0.3330153748941944	0.019187038712344506
93	1.9787234042553192	0.292636455619613	0.5181549785459301	0.48807004657963177	0.24568044352142068	0.5460081784915508	0.9120352188740477	0.22598391118629585	0.5700592530751553	1.312265229212148	0.262562592730156	0.4468685250341612	1.336411013203031	0.31235596981469577	0.4851270135359865	1.3286341118549676	0.17264801448161776	0.6569937333195266	1.381627517997082	0.13015662677220605	0.44847559406059784	0.4788143174572869	0.05048967573564039	0.5240187234966687	0.9131355652548689	0.03131286878305934	0.5615080332021387	1.3277104530721682	0.11037570381504032	0.37708047713574644	1.3067587251339061	0.038338429100818895	0.4263393878097628	1.3268419999694867	0.03637914298879564	0.6028948693360077	1.3747881372769353	0.1974675093222284	0.5650176653792892	-0.007130805654780867	0.26220062092311713	0.4770396007996936	-0.24564085452850976	0.25865289649465134	0.45395001736652896	-0.11246463894310152	0.3487077332352313	0.5509304566972965	0.051403890838782655	0.3713110897045628	0.624054140911024	0.2882993305925319	0.38224262311461993	0.5274329707425507	0.1635927270242733	0.34019808742732655	0.5019869262397572	0.04747986791990705	0.38534079631108453	0.4534961987561857	0.03856155756019888	0.4111460760757605	0.44059162228689946	0.098569145107286	0.06269179385662074	0.5182757721789419	0.030737031490744166	-0.006219248867132268	0.4026857080764766	0.24072297147606045	0.07834400712090359	0.39237195989251733	0.11215293895538411	0.15640674504847765	0.42590537936228234	0.02652341721501542	0.1460624523636015	0.3903785071818191	0.0075166961664070425	0.14016080470328338	0.3334801703781437	0.029999959972306048
94	2.0	0.284071681221465	0.5289781558374507	0.4877766039527834	0.24557074728929795	0.5461167344527069	0.9118555667921532	0.21783014563770783	0.5689646167509314	1.3133221963348072	0.2626772077473519	0.4342312009459691	1.3338216416655981	0.3132823254179973	0.48368635706921054	1.3321101714185057	0.17255540929018193	0.6568924786598009	1.38158019815977	0.12116833441796478	0.4589140172909576	0.4820228615557702	0.0504668035391105	0.525813899927341	0.9184870777752391	0.031303965159747905	0.5615074716756431	1.327825504056724	0.10871552178739974	0.38970283450667376	1.313922294330527	0.038546958969227996	0.4264913076913928	1.3268906609492133	0.03636000723600595	0.6029201544360329	1.3749028026353407	0.1973999081610127	0.5649671271294504	-0.006972110498568432	0.2623341244195813	0.4768675238267309	-0.24575918669458657	0.2586076767875994	0.4549179422812019	-0.10905390975839709	0.35242855411055746	0.5557431549433521	0.05503347736614627	0.37159300375567844	0.6230906823384711	0.2920764086980438	0.37923640827950583	0.5228955888165892	0.17096241402281165	0.34014151202106446	0.49995662031908245	0.042477915254907246	0.3773189126346405	0.4656224646854394	0.042102982078415556	0.4113714593480399	0.44066080255957996	0.10126507637955622	0.06001112130661349	0.514757372610931	0.030478415732621562	-0.005678036477934592	0.4030829942638107	0.2373603966550655	0.08711307512669797	0.3822054544682811	0.11051892510021281	0.1564182936877639	0.425948043094038	0.033626994903007294	0.1489066087500775	0.37573548741758483	0.009629997266523659	0.13940505234440043	0.33519084202671845	0.04065901900362421
95	2.021276595744681	0.28386918410575035	0.5288996533825114	0.4878115209348137	0.24556600735970108	0.5462315958661633	0.9119007134562348	0.21781005813613172	0.5688110007644069	1.3132342690143297	0.2625115813944899	0.4356464546680416	1.33455005759534	0.313162213838249	0.485125481913005	1.3323060086773457	0.1737558121111295	0.6431768527555105	1.374253485944348	0.12099681298475336	0.45905156132980435	0.48203811115917294	0.05044657501737131	0.525815466437873	0.9184743470488897	0.03127655359042087	0.5614860416974423	1.32824223708108	0.10879320811852501	0.3893901605287822	1.3138580092713459	0.03861295533588012	0.42631143060381843	1.326860925090509	0.03637737266482636	0.604650154759194	1.3805545520838258	0.19749066592348932	0.5643650398553232	1.3458211257998509e-05	0.261999117521335	0.47777119732379614	-0.24201557646587	0.2551199078194495	0.45216881764977007	-0.1087102023711894	0.3480428675591024	0.5759632623741272	0.05778499691304075	0.37140310800135934	0.6231890098367071	0.28814973031916274	0.3829906872413678	0.5238662719914787	0.17846418718558982	0.3400474930755555	0.5013983771681497	0.04973198469312267	0.39681021081037654	0.4446816665807229	0.03944515699235921	0.4113481382289666	0.4298477351912339	0.10759995054058301	0.06270588674446137	0.5182174567509188	0.030671303095434636	-0.008591889085437282	0.41503758580077227	0.24324700946861605	0.08718794800821188	0.38212015603948774	0.11076326335573039	0.15729956425949826	0.41455282802681714	0.03247382102194265	0.14924164134803247	0.3632868525657395	0.008342677952111638	0.1391099479269893	0.3348973826588469	0.050246406381114994
96	2.0425531914893615	0.2926984049929861	0.5178993402375668	0.4880382557730871	0.25145372941924127	0.5360701181836746	0.9033324323125412	0.22710060426126272	0.5560731368957604	1.3049571405695495	0.2625881778281776	0.4355639063945183	1.3343666352905543	0.3133567013503378	0.4847825115203202	1.332152058657713	0.17393507140880332	0.6431971720575678	1.3740543999675208	0.12157167231324707	0.45822954897333723	0.48551425225879663	0.0512661399629925	0.5252949025508282	0.9143795439881252	0.03052241889849269	0.5628143851007766	1.3243560148219533	0.10550314371218039	0.3854128520002557	1.3123196295578945	0.048255091680174125	0.4151458257571043	1.318802406036849	0.036232615188645366	0.6031852999743746	1.3748997315213551	0.1890294596336292	0.5760750714310079	-0.0017233580557466958	0.2650140785484914	0.4809403049624194	-0.24205013932350847	0.25762762985084675	0.46637702118776075	-0.10392494586954178	0.3514050261246302	0.5801338394139561	0.0583940342728808	0.3713075500828796	0.6231234608287968	0.29178581136619386	0.38228179950207186	0.524745818492169	0.1747153179776394	0.3404135407684418	0.501916868964933	0.04633977320504717	0.3971174585319854	0.4480084859116345	0.043726040114149864	0.4000983257150473	0.4480896453892109	0.1074837622663549	0.05980861431047363	0.5152488769064107	0.03032222211546361	-0.001204781960612755	0.41522033765840305	0.24274335408550357	0.08697816330683336	0.3825447058733331	0.11087229924089281	0.15750651547971473	0.41501230527828775	0.039737916712352155	0.1537890469650062	0.35406509632801486	0.010922898467853244	0.14682824989060816	0.32743517190692595	0.05764023238169204
